<?xml version="1.0" encoding="UTF-8" standalone="no"?>
<!DOCTYPE svg PUBLIC "-//W3C//DTD SVG 1.1//EN" "http://www.w3.org/Graphics/SVG/1.1/DTD/svg11.dtd">
<svg width="100%" height="100%" viewBox="0 0 650 650" version="1.1" xmlns="http://www.w3.org/2000/svg" xmlns:xlink="http://www.w3.org/1999/xlink" xml:space="preserve" xmlns:serif="http://www.serif.com/" style="fill-rule:evenodd;clip-rule:evenodd;stroke-linecap:round;stroke-linejoin:round;stroke-miterlimit:1.5;">
    <circle cx="325" cy="325.014" r="303.797" style="fill:rgb(224,1,46);stroke:black;stroke-width:0.65px;"/>
    <g id="g7146" transform="matrix(1,0,0,1,32.5464,32.779)">
        <g id="g10034">
            <g id="path37457" transform="matrix(1.05388,0,0,1.07725,380.881,65.071)">
                <path d="M179.856,210.873C179.856,352.436 60.783,468.925 -83.919,468.925C-228.622,468.925 -347.694,352.436 -347.694,210.873C-347.694,69.31 -228.622,-47.178 -83.919,-47.178C60.783,-47.178 179.856,69.31 179.856,210.873Z" style="fill:rgb(255,221,2);fill-rule:nonzero;"/>
            </g>
            <path id="path36484" d="M409.701,523.587C406.593,523.818 402.091,524.776 399.432,523.713C392.478,520.931 394.239,516.666 390.16,511.845C386.08,507.023 385.338,511.01 383.113,504.427C380.888,497.844 382.928,491.632 381.259,485.512C379.59,479.393 377.086,483.751 376.437,479.949C375.788,476.148 380.517,477.91 378.663,470.307C376.808,462.704 369.02,449.538 369.02,449.538L316.356,451.763C316.356,451.763 304.395,459.459 301.521,467.71C298.647,475.962 306.342,478.188 304.859,484.771C303.375,491.354 297.534,487.552 295.587,494.043C293.64,500.533 299.296,503.407 297.07,510.732C294.845,518.057 289.838,517.871 286.686,523.342C283.533,528.812 284.461,532.613 284.461,532.613C284.461,532.613 280.845,539.475 279.268,538.547C277.692,537.62 279.268,532.335 278.156,528.905C277.043,525.474 275.189,529.276 274.818,524.825C274.447,520.375 277.507,516.573 276.672,511.103C275.838,505.632 271.573,506.93 271.48,502.944C271.387,498.957 275.56,498.586 276.301,495.155C277.043,491.725 274.725,493.301 274.447,489.221C274.169,485.142 277.599,486.069 275.189,478.837C272.778,471.605 264.804,460.293 264.804,460.293L227.717,454.73L218.074,467.34C212.241,471.52 206.326,475.619 209.173,488.479C202.754,491.214 197.124,495.131 196.563,506.652C194.544,508.671 192.568,510.778 192.484,516.666C191.963,523.494 187.173,524.986 183.589,527.007C96.245,485.88 35.146,396.506 35.146,292.949C35.146,150.498 150.758,34.886 293.209,34.886C435.659,34.886 551.272,150.498 551.272,292.949C551.272,393.472 493.649,480.989 409.701,523.587Z" style="fill:rgb(2,17,135);fill-rule:nonzero;"/>
            <g id="g6123" transform="matrix(1,0,0,1,1361.76,-126.485)">
                <path id="path39407" d="M-858.112,568.966C-869.516,585.047 -882.707,599.768 -897.393,612.833C-977.889,566.334 -1164.12,512.973 -1313.13,502.175C-1321.9,476.221 -1326.66,448.42 -1326.66,419.514C-1326.66,354.961 -1302.91,295.919 -1263.69,250.649C-1105.85,347.112 -968.175,462.127 -858.112,568.966Z" style="fill:rgb(224,1,46);fill-rule:nonzero;"/>
                <path id="path4179" d="M-858.205,569.04C-865.877,581.151 -874.765,590.705 -884.101,600.304C-1019.2,488.668 -1309.52,448.271 -1327.33,419.781C-1327.33,355.227 -1303.01,295.993 -1263.79,250.724C-1105.94,347.186 -968.268,462.201 -858.205,569.04Z" style="fill:rgb(255,221,2);fill-rule:nonzero;"/>
                <path id="path4177" d="M-1308.23,323.63C-1297.47,296.784 -1282.33,272.162 -1263.69,250.649C-1105.85,347.112 -968.175,462.127 -858.112,568.966C-862.079,574.561 -866.263,579.991 -870.651,585.244C-986.902,490.765 -1142.68,396.043 -1308.23,323.63Z" style="fill:rgb(90,181,222);fill-rule:nonzero;"/>
                <path id="path4169" d="M-879.298,595.081C-882.325,598.355 -885.436,601.551 -888.626,604.664C-999.234,542.549 -1234.11,448.135 -1325.18,447.228C-1326.16,438.123 -1326.66,428.876 -1326.66,419.514C-1326.66,409.082 -1326.04,398.795 -1324.83,388.686C-1157.98,428.986 -1013.4,516.807 -879.298,595.081Z" style="fill:rgb(233,106,39);fill-rule:nonzero;"/>
            </g>
            <g id="g34469">
                <path id="path32476" d="M261.466,433.59L308.197,428.398L309.68,387.602L253.678,389.085L261.466,433.59Z" style="fill:rgb(194,206,221);stroke:black;stroke-width:1px;stroke-linecap:butt;stroke-linejoin:miter;stroke-miterlimit:4;"/>
                <path id="path18739" d="M218.952,371.062L249.898,344.837C254.071,341.436 254.88,337.025 255.667,332.249L276.385,234.693C278.613,227.043 283.51,221.845 288.973,219.22L272.189,312.58L264.846,346.41L218.952,371.062Z" style="fill:rgb(255,255,253);stroke:black;stroke-width:1px;stroke-linecap:butt;stroke-linejoin:miter;stroke-miterlimit:4;"/>
                <path id="path19710" d="M218.821,371.193L249.767,344.968C253.94,341.567 254.748,337.156 255.536,332.38L276.254,234.824C278.04,228.69 281.543,224.133 285.677,221.214C279.788,232.28 265.701,306.18 258.515,348.946L218.821,371.193Z" style="fill:rgb(194,206,221);"/>
                <path id="path19712" d="M278.007,230.523C281.053,229.955 284.015,229.889 286.815,230.801" style="fill:none;stroke:black;stroke-width:1px;stroke-linecap:butt;stroke-linejoin:miter;stroke-miterlimit:4;"/>
                <path id="path19714" d="M274.02,245.636C277.029,243.376 280.915,243.549 284.404,243.689" style="fill:none;stroke:black;stroke-width:1px;stroke-linecap:butt;stroke-linejoin:miter;stroke-miterlimit:4;"/>
                <path id="path19716" d="M270.404,262.975C274.181,260.719 277.277,260.973 280.603,261.306" style="fill:none;stroke:black;stroke-width:1px;stroke-linecap:butt;stroke-linejoin:miter;stroke-miterlimit:4;"/>
                <path id="path19718" d="M266.324,281.982C269.535,278.717 273.786,279.28 277.45,278.737" style="fill:none;stroke:black;stroke-width:1px;stroke-linecap:butt;stroke-linejoin:miter;stroke-miterlimit:4;"/>
                <path id="path19720" d="M262.059,301.36C265.531,297.956 269.958,298.182 273.371,297.837" style="fill:none;stroke:black;stroke-width:1px;stroke-linecap:butt;stroke-linejoin:miter;stroke-miterlimit:4;"/>
                <path id="path19722" d="M257.423,323.149C260.625,319.086 264.478,319.579 267.9,319.255" style="fill:none;stroke:black;stroke-width:1px;stroke-linecap:butt;stroke-linejoin:miter;stroke-miterlimit:4;"/>
                <path id="path19724" d="M252.787,341.401C255.937,335.546 260.996,334.197 265.304,331.586" style="fill:none;stroke:black;stroke-width:1px;stroke-linecap:butt;stroke-linejoin:miter;stroke-miterlimit:4;"/>
                <path id="path21664" d="M218.821,371.193L249.767,344.968C253.94,341.567 254.748,337.156 255.536,332.38L276.254,234.824C278.482,227.174 283.379,221.976 288.841,219.351L272.058,312.712L264.715,346.542L218.821,371.193Z" style="fill:none;stroke:black;stroke-width:1px;stroke-linecap:butt;stroke-linejoin:miter;stroke-miterlimit:4;"/>
                <path id="path12905" d="M284.275,239.066L286.871,215.701C289.683,193.092 309.815,176.121 315.243,176.203C321.268,175.869 329.374,192.472 333.045,204.39L330.449,302.486L286.871,301.373L284.275,239.066Z" style="fill:rgb(228,103,37);stroke:black;stroke-width:1px;stroke-linecap:butt;stroke-linejoin:miter;stroke-miterlimit:4;"/>
                <g id="g21678">
                    <path id="path14845" d="M324.33,219.225C325.926,213.157 330.332,207.301 333.416,205.317C336.635,206.736 341.183,211.966 343.615,219.41L354.927,333.083C343.211,324.511 328.231,321.164 322.475,301.188L324.33,219.225Z" style="fill:rgb(255,255,253);stroke:black;stroke-width:1px;stroke-linecap:butt;stroke-linejoin:miter;stroke-miterlimit:4;"/>
                    <path id="path15816" d="M329.674,315.31C326.643,311.729 324.101,307.246 322.383,301.281L324.237,219.317C325.834,213.25 330.239,207.394 333.323,205.41L333.416,205.688C332.872,210.52 331.904,215.777 331.809,220.16L329.674,315.31Z" style="fill:rgb(194,206,221);"/>
                    <path id="path15818" d="M324.515,221.264C331.145,215.789 337.383,217.358 343.522,220.708" style="fill:none;stroke:black;stroke-width:1px;stroke-linecap:butt;stroke-linejoin:miter;stroke-miterlimit:4;"/>
                    <path id="path15820" d="M323.773,234.987C329.706,230.842 336.05,228.168 344.913,234.523" style="fill:none;stroke:black;stroke-width:1px;stroke-linecap:butt;stroke-linejoin:miter;stroke-miterlimit:4;"/>
                    <path id="path15822" d="M323.681,253.994C332.289,245.557 341.957,249.4 346.582,253.252" style="fill:none;stroke:black;stroke-width:1px;stroke-linecap:butt;stroke-linejoin:miter;stroke-miterlimit:4;"/>
                    <path id="path15824" d="M323.032,272.26C330.577,266.524 339.535,264.894 348.807,271.982" style="fill:none;stroke:black;stroke-width:1px;stroke-linecap:butt;stroke-linejoin:miter;stroke-miterlimit:4;"/>
                    <path id="path15826" d="M322.846,291.267C330.989,286.256 339.447,282.725 350.754,292.565" style="fill:none;stroke:black;stroke-width:1px;stroke-linecap:butt;stroke-linejoin:miter;stroke-miterlimit:4;"/>
                    <path id="path15828" d="M325.813,309.162C336.401,304.346 345.699,308.914 352.794,312.778" style="fill:none;stroke:black;stroke-width:1px;stroke-linecap:butt;stroke-linejoin:miter;stroke-miterlimit:4;"/>
                    <path id="path18737" d="M324.235,219.239C325.832,213.171 330.238,207.315 333.322,205.331C336.541,206.75 341.089,211.98 343.521,219.424L354.57,332.704C342.854,324.131 328.268,320.785 322.512,300.809L324.235,219.239Z" style="fill:none;stroke:black;stroke-width:1px;stroke-linecap:butt;stroke-linejoin:miter;stroke-miterlimit:4;"/>
                </g>
                <g id="g31458" transform="matrix(1,0,0,1,35.6303,-19.5027)">
                    <path id="path25623" d="M199.456,441.422L195.436,458.906L180.574,485.019C200.593,483.112 220.611,483.818 240.629,493.935L232.728,463.041L229.311,439.342L199.456,441.422Z" style="fill:rgb(255,255,253);stroke:black;stroke-width:1px;stroke-linecap:butt;stroke-linejoin:miter;stroke-miterlimit:4;"/>
                    <g id="g31453" transform="matrix(1,0,0,1,-34.8622,20.0272)">
                        <path id="path27567" d="M270.872,456.503L267.459,443.158L264.043,419.46L238.088,421.35C252.969,427.358 260.026,444.667 270.872,456.503Z" style="fill:rgb(194,206,221);"/>
                        <path id="path26594" d="M229.757,439.524C240.878,436.164 251.844,434.266 267.493,443.511" style="fill:none;stroke:black;stroke-width:1px;stroke-linecap:butt;stroke-linejoin:miter;stroke-miterlimit:4;"/>
                        <path id="path29513" d="M234.318,421.34L230.298,438.824L215.437,464.937C235.455,463.031 255.473,463.736 275.491,473.854L267.59,442.959L264.173,419.261L234.318,421.34Z" style="fill:none;stroke:black;stroke-width:1px;stroke-linecap:butt;stroke-linejoin:miter;stroke-miterlimit:4;"/>
                    </g>
                </g>
                <g id="g32469">
                    <g id="g32462">
                        <path id="path27569" d="M319.879,410.596L318.952,432.848L305.415,462.147C331.054,453.159 354.734,454.745 377.921,458.995L362.715,427.841L361.973,389.271L319.694,397.43L319.879,410.596Z" style="fill:rgb(255,255,253);stroke:black;stroke-width:1px;stroke-linecap:butt;stroke-linejoin:miter;stroke-miterlimit:4;"/>
                        <path id="path28542" d="M319.972,410.503L319.045,432.756L305.508,462.055C314.522,458.895 323.294,457.041 331.888,456.152C336.818,442.607 329.185,413.718 362.414,407.257L362.066,389.178L319.786,397.337L319.972,410.503Z" style="fill:rgb(194,206,221);"/>
                        <path id="path28540" d="M318.767,432.848C333.062,423.885 347.743,424.537 362.53,427.841" style="fill:none;stroke:black;stroke-width:1px;stroke-linecap:butt;stroke-linejoin:miter;stroke-miterlimit:4;"/>
                    </g>
                    <path id="path32467" d="M319.786,410.318L318.859,432.57L305.322,461.869C330.961,452.881 354.641,454.467 377.828,458.717L362.622,427.563L361.881,388.992L319.601,397.152L319.786,410.318Z" style="fill:none;stroke:black;stroke-width:1px;stroke-linecap:butt;stroke-linejoin:miter;stroke-miterlimit:4;"/>
                </g>
                <path id="path24651" d="M265.39,426.273C265.192,427.483 260.805,427.777 255.597,426.929C250.388,426.081 246.321,424.41 246.518,423.2L246.775,421.327L246.906,421.065C248.028,410.591 258.812,415.094 266.313,414.509C266.917,418.299 267.852,422.352 265.39,426.273Z" style="fill:rgb(1,3,0);fill-rule:nonzero;stroke:black;stroke-width:1px;stroke-linecap:butt;stroke-linejoin:miter;stroke-miterlimit:4;"/>
                <g id="path22711" transform="matrix(0.986997,0.16074,-0.16074,0.986997,119.393,-35.4083)">
                    <path d="M218.309,432.21C218.309,433.429 213.994,434.432 208.749,434.432C203.505,434.432 199.189,433.429 199.189,432.21C199.189,430.992 203.505,429.989 208.749,429.989C213.994,429.989 218.309,430.992 218.309,432.21Z" style="fill:rgb(255,255,253);fill-rule:nonzero;stroke:black;stroke-width:1px;stroke-linecap:butt;stroke-linejoin:miter;stroke-miterlimit:4;"/>
                </g>
                <path id="path2161" d="M308.04,399.797L395.229,383.114L391.257,356.302L352.528,331.476C346.281,326.94 324.231,318.932 321.943,297.315L315.441,243.838C313.58,227.103 309.281,216.572 305.855,216.879C301.432,215.14 285.402,231.208 282.817,243.89L262.758,339.221C261.307,344.444 258.174,346.178 250.841,350.542L186.294,392.647L176.562,420.849L250.841,403.173L308.04,399.797Z" style="fill:rgb(255,255,253);stroke:black;stroke-width:1px;stroke-linecap:butt;stroke-linejoin:miter;stroke-miterlimit:4;"/>
                <path id="path7050" d="M302.634,421.375C302.741,423.155 297.797,424.902 291.6,425.275C285.402,425.647 280.285,424.505 280.178,422.725C277.754,415.219 279.266,407.604 281.154,400.142L295.198,399.299C299.662,406.116 302.288,413.435 302.634,421.375Z" style="fill:rgb(255,255,253);fill-rule:nonzero;stroke:black;stroke-width:1px;stroke-linecap:butt;stroke-linejoin:miter;stroke-miterlimit:4;"/>
                <path id="path4123" d="M308.539,354.373L311.218,300.294M308.552,354.29C299.092,343.587 288.685,339.522 276.239,349.725L271.745,382.728C281.329,378.262 291.372,378.542 302.079,385.677L301.658,395.648L306.302,401.226L308.552,354.29Z" style="fill:none;stroke:black;stroke-width:1px;stroke-linecap:butt;stroke-linejoin:miter;stroke-miterlimit:4;"/>
                <path id="path5103" d="M192.053,417.076L197.416,400.393L250.444,377.751L244.089,404.563" style="fill:none;stroke:black;stroke-width:1px;stroke-linecap:butt;stroke-linejoin:miter;stroke-miterlimit:4;"/>
                <path id="path7045" d="M278.211,415.967C277.908,418.581 271.192,419.953 263.22,419.03C255.247,418.108 249.022,415.237 249.325,412.624C249.943,406.133 251.731,398.578 256.437,391.715C260.535,385.086 272.658,388.61 275.115,393.962C277.573,399.315 279.045,408.437 278.211,415.967Z" style="fill:rgb(194,206,221);fill-rule:nonzero;stroke:black;stroke-width:1px;stroke-linecap:butt;stroke-linejoin:miter;stroke-miterlimit:4;"/>
                <path id="path12901" d="M211.213,412.543L206.948,424.504L251.638,420.98L251.36,402.993L211.213,412.543Z" style="fill:rgb(255,255,253);stroke:black;stroke-width:1px;stroke-linecap:butt;stroke-linejoin:miter;stroke-miterlimit:4;"/>
                <path id="path9004" d="M263.22,419.102C255.247,418.179 249.022,415.309 249.325,412.695C249.943,406.204 251.731,398.649 256.437,391.787C258.859,387.864 264.039,387.477 268.416,388.894L268.586,388.952C259.413,403.675 262.918,410.344 263.22,419.102Z" style="fill:rgb(1,3,0);fill-rule:nonzero;stroke:black;stroke-width:1px;stroke-linecap:butt;stroke-linejoin:miter;stroke-miterlimit:4;"/>
                <g id="path6074" transform="matrix(0.993367,0.11499,-0.11499,0.993367,49.4678,-28.973)">
                    <path d="M278.39,415.685C278.39,418.3 271.826,420.452 263.85,420.452C255.874,420.452 249.31,418.3 249.31,415.685C249.31,413.07 255.874,410.919 263.85,410.919C271.826,410.919 278.39,413.07 278.39,415.685L278.39,415.685Z" style="fill:rgb(255,255,253);fill-rule:nonzero;stroke:black;stroke-width:1px;stroke-linecap:butt;stroke-linejoin:miter;stroke-miterlimit:4;"/>
                </g>
                <path id="path7058" d="M271.761,382.509C281.345,378.044 291.05,378.324 301.756,385.459L301.335,395.43L305.979,401.008L306.054,404.961L278.448,405.159C277.159,397.275 275.027,391.415 271.099,389.866L271.761,382.509Z" style="fill:rgb(194,206,221);stroke:black;stroke-width:1px;stroke-linecap:butt;stroke-linejoin:miter;stroke-miterlimit:4;"/>
                <path id="path9006" d="M291.581,425.361C285.383,425.733 280.267,424.591 280.159,422.812C277.736,415.306 279.619,407.134 281.507,399.672L287.871,399.824C286.583,413.007 287.576,421.971 291.581,425.361Z" style="fill:rgb(1,3,0);fill-rule:nonzero;stroke:black;stroke-width:1px;stroke-linecap:butt;stroke-linejoin:miter;stroke-miterlimit:4;"/>
                <g id="path7048" transform="matrix(0.998197,-0.0600167,0.0600167,0.998197,-25.6237,16.3296)">
                    <path d="M303.356,424.016C303.356,425.788 298.279,427.246 292.108,427.246C285.938,427.246 280.86,425.788 280.86,424.016C280.86,422.244 285.938,420.786 292.108,420.786C298.279,420.786 303.356,422.244 303.356,424.016Z" style="fill:rgb(255,255,253);fill-rule:nonzero;stroke:black;stroke-width:1px;stroke-linecap:butt;stroke-linejoin:miter;stroke-miterlimit:4;"/>
                </g>
                <path id="path7055" d="M294.401,400.138C294.401,401.185 291.507,402.034 287.941,402.034C284.375,402.034 281.481,401.185 281.481,400.138C281.78,396.825 281.322,394.081 282.98,389.749C284.946,384.521 290.844,386.824 291.827,389.609C293.475,393.382 293.823,396.722 294.401,400.138Z" style="fill:rgb(194,206,221);fill-rule:nonzero;stroke:black;stroke-width:1px;stroke-linecap:butt;stroke-linejoin:miter;stroke-miterlimit:4;"/>
                <path id="path9008" d="M287.981,402.041C284.415,402.041 281.521,401.192 281.521,400.145C281.82,396.833 281.362,394.088 283.019,389.757C284.056,387.001 286.185,386.337 288.11,386.734L289.272,387.284C286.903,391.988 288.232,397.102 287.981,402.041Z" style="fill:rgb(1,3,0);fill-rule:nonzero;stroke:black;stroke-width:1px;stroke-linecap:butt;stroke-linejoin:miter;stroke-miterlimit:4;"/>
                <path id="path7053" d="M294.355,400.07L294.355,400.073C294.355,401.113 291.439,401.969 287.895,401.969C284.351,401.969 281.435,401.113 281.435,400.073L281.435,400.07C281.435,399.03 284.351,398.174 287.895,398.174C291.439,398.174 294.355,399.03 294.355,400.07Z" style="fill:rgb(255,255,253);fill-rule:nonzero;stroke:black;stroke-width:1px;stroke-linecap:butt;stroke-linejoin:miter;stroke-miterlimit:4;"/>
                <path id="path7060" d="M271.815,385.255L282.207,391.294" style="fill:none;stroke:black;stroke-width:1px;stroke-linecap:butt;stroke-linejoin:miter;stroke-miterlimit:4;"/>
                <path id="path7062" d="M293.934,395.929L301.026,395.788" style="fill:none;stroke:black;stroke-width:1px;stroke-linecap:butt;stroke-linejoin:miter;stroke-miterlimit:4;"/>
                <path id="path10957" d="M305.928,217.414C301.505,215.675 285.846,231.373 283.261,244.054L263.201,339.386L276.7,339.473L293.412,241.308C295.135,232.255 298.444,223.499 305.928,217.414Z" style="fill:rgb(194,206,221);"/>
                <path id="path9981" d="M287.755,233.022L289.58,229.932L300.956,230.073C304.31,230.147 305.071,232.444 305.871,234.707L304.186,236.673C303.246,234.41 302.625,233.236 299.271,233.162L287.895,233.022" style="stroke:black;stroke-width:1px;stroke-linecap:butt;stroke-linejoin:miter;stroke-miterlimit:4;"/>
                <path id="path9010" d="M282.699,243.695L300.254,243.134C302.741,242.948 304.413,243.741 305.028,245.802" style="fill:none;stroke:black;stroke-width:1px;stroke-linecap:butt;stroke-linejoin:miter;stroke-miterlimit:4;"/>
                <path id="path3152" d="M262.691,339.327L296.72,339.817L306.253,251.834" style="fill:none;stroke:black;stroke-width:1px;stroke-linecap:butt;stroke-linejoin:miter;stroke-miterlimit:4;"/>
                <path id="path12897" d="M309.571,399.574L308.835,414.096L348.953,404.762L348.704,391.996L309.571,399.574Z" style="fill:rgb(255,255,253);stroke:black;stroke-width:1px;stroke-linecap:butt;stroke-linejoin:miter;stroke-miterlimit:4;"/>
                <path id="path12899" d="M352.131,391.257L352.528,403.769L392.051,395.427L390.695,384.132L352.131,391.257Z" style="fill:rgb(255,255,253);stroke:black;stroke-width:1px;stroke-linecap:butt;stroke-linejoin:miter;stroke-miterlimit:4;"/>
                <path id="path32478" d="M276.671,349.996L272.344,381.695C275.87,380.443 279.282,379.417 282.506,379.105L286.26,344.816C282.537,345.881 279.523,347.711 276.671,349.996Z" style="fill:rgb(194,206,221);"/>
                <path id="path33449" d="M257.665,389.572L263.117,339.819L286.176,340.13L286.119,343.865C281.864,345.229 278.843,346.822 275.772,349.603C273.989,363.061 272.054,376.057 270.651,389.346C267.251,387.506 261.656,386.568 257.665,389.572Z" style="fill:rgb(194,206,221);"/>
                <path id="path8033" d="M244.648,401.877L265.141,379.737" style="fill:none;stroke:black;stroke-width:1px;stroke-linecap:butt;stroke-linejoin:miter;stroke-miterlimit:4;"/>
            </g>
            <g id="path34532" transform="matrix(0.848227,0.529633,-0.529633,0.848227,120.949,-49.1785)">
                <path d="M171.728,148.917L154.766,130.274L128.567,136.613L147.21,119.651L140.872,93.452L157.833,112.095L184.032,105.757L165.389,122.718L171.728,148.917Z" style="fill:rgb(255,221,2);fill-rule:nonzero;stroke:black;stroke-width:1px;stroke-linecap:butt;stroke-linejoin:miter;stroke-miterlimit:4;"/>
            </g>
            <g id="path36472" transform="matrix(0.848227,0.529633,-0.529633,0.848227,215.882,-64.9134)">
                <path d="M171.728,148.917L154.766,130.274L128.567,136.613L147.21,119.651L140.872,93.452L157.833,112.095L184.032,105.757L165.389,122.718L171.728,148.917Z" style="fill:rgb(255,221,2);fill-rule:nonzero;stroke:black;stroke-width:1px;stroke-linecap:butt;stroke-linejoin:miter;stroke-miterlimit:4;"/>
            </g>
            <g id="path36474" transform="matrix(0.848227,0.529633,-0.529633,0.848227,397.358,163.767)">
                <path d="M169.228,144.913L154.743,128.37L132.571,134.112L149.114,119.628L143.372,97.456L157.857,113.999L180.028,108.257L163.485,122.741L169.228,144.913Z" style="fill:rgb(255,221,2);fill-rule:nonzero;stroke:black;stroke-width:1px;stroke-linecap:butt;stroke-linejoin:miter;stroke-miterlimit:4;"/>
            </g>
            <g id="path36476" transform="matrix(0.833147,0.553052,-0.553052,0.833147,354.824,78.0145)">
                <path d="M169.228,144.913L154.743,128.37L132.571,134.112L149.114,119.628L143.372,97.456L157.857,113.999L180.028,108.257L163.485,122.741L169.228,144.913Z" style="fill:rgb(255,221,2);fill-rule:nonzero;stroke:black;stroke-width:1px;stroke-linecap:butt;stroke-linejoin:miter;stroke-miterlimit:4;"/>
            </g>
            <g id="path36480" transform="matrix(0.811334,0.584583,-0.584583,0.811334,320.836,45.8333)">
                <path d="M171.728,148.917L154.766,130.274L128.567,136.613L147.21,119.651L140.872,93.452L157.833,112.095L184.032,105.757L165.389,122.718L171.728,148.917Z" style="fill:rgb(255,221,2);fill-rule:nonzero;stroke:black;stroke-width:1px;stroke-linecap:butt;stroke-linejoin:miter;stroke-miterlimit:4;"/>
            </g>
            <g id="path36482" transform="matrix(0.81257,0.582863,-0.582863,0.81257,350.114,-25.3791)">
                <path d="M171.728,148.917L154.766,130.274L128.567,136.613L147.21,119.651L140.872,93.452L157.833,112.095L184.032,105.757L165.389,122.718L171.728,148.917Z" style="fill:rgb(255,221,2);fill-rule:nonzero;stroke:black;stroke-width:1px;stroke-linecap:butt;stroke-linejoin:miter;stroke-miterlimit:4;"/>
            </g>
            <path id="path38430" d="M214.736,540.773C226.086,546.634 253.307,549.952 265.546,551.157C269.255,550.508 263.784,548.005 263.692,545.594C263.599,543.183 264.99,545.687 265.175,541.514C265.361,537.342 266.288,534.839 264.433,528.905C262.579,522.971 259.427,522.322 257.758,517.779C256.089,513.235 259.056,513.421 257.758,510.732C256.46,508.043 253.585,510.176 252.565,507.023C251.546,503.871 254.234,501.831 253.678,498.122C253.122,494.413 252.751,495.433 250.34,492.188C247.929,488.943 247.28,485.327 244.035,485.142C240.79,484.956 242.366,484.585 237.36,491.446C232.353,498.308 227.346,503.963 224.008,512.586C220.67,521.209 226.326,518.891 224.008,525.938C221.69,532.984 209.915,531.872 214.736,540.773Z" style="fill:rgb(255,51,0);"/>
            <path id="path38432" d="M307.826,551.899C322.846,553.197 347.695,548.654 361.232,544.852C364.755,538.826 362.437,540.216 361.973,536.693C361.51,533.17 359.748,534.004 359.377,530.759C359.006,527.514 362.344,528.997 360.49,523.713C358.635,518.428 353.536,515.924 351.96,509.619C350.384,503.314 355.576,503.593 354.185,498.493C352.794,493.394 351.125,494.97 346.397,489.221C341.668,483.473 339.814,476.333 335.27,475.499C330.727,474.664 331.933,481.433 328.224,485.883C324.515,490.334 322.383,489.128 320.435,493.301C318.488,497.473 322.29,498.864 320.435,502.573C318.581,506.281 314.872,503.129 313.018,508.136C311.164,513.143 315.985,514.719 313.018,522.6C310.051,530.481 302.448,532.335 301.15,539.66C299.852,546.985 301.335,546.892 307.826,551.899Z" style="fill:rgb(255,51,0);"/>
            <g id="path10030" transform="matrix(0.848227,0.529633,-0.529633,0.848227,79.7858,230.381)">
                <path d="M169.228,144.913L154.743,128.37L132.571,134.112L149.114,119.628L143.372,97.456L157.857,113.999L180.028,108.257L163.485,122.741L169.228,144.913Z" style="fill:rgb(255,221,2);fill-rule:nonzero;stroke:black;stroke-width:1px;stroke-linecap:butt;stroke-linejoin:miter;stroke-miterlimit:4;"/>
            </g>
        </g>
    </g>
    <g transform="matrix(1.15045,0,0,1.15045,-33.0779,-33.0779)">
        <g transform="matrix(0.949481,0.313826,-0.313826,0.949481,171.681,-45.0144)">
            <text x="225.655px" y="510.731px" style="font-family:'OceanicDriftBoldExpanded', 'Oceanic Drift Bold Expanded';font-stretch:expanded;font-size:47.807px;fill:rgb(90,181,222);stroke:black;stroke-width:0.87px;stroke-linecap:butt;stroke-miterlimit:2;">S</text>
        </g>
        <g transform="matrix(0.987775,0.155885,-0.155885,0.987775,84.5868,-34.2427)">
            <text x="260.618px" y="522.187px" style="font-family:'OceanicDriftBoldExpanded', 'Oceanic Drift Bold Expanded';font-stretch:expanded;font-size:47.807px;fill:rgb(90,181,222);stroke:black;stroke-width:0.87px;stroke-linecap:butt;stroke-miterlimit:2;">2</text>
        </g>
        <g transform="matrix(0.998694,0.0510909,-0.0510909,0.998694,27.2963,-14.25)">
            <text x="292.381px" y="526.796px" style="font-family:'OceanicDriftBoldExpanded', 'Oceanic Drift Bold Expanded';font-stretch:expanded;font-size:47.807px;fill:rgb(90,181,222);stroke:black;stroke-width:0.87px;stroke-linecap:butt;stroke-miterlimit:2;">I</text>
        </g>
        <g transform="matrix(0.999698,-0.0245714,0.0245714,0.999698,-12.8724,7.70036)">
            <text x="306.904px" y="527.647px" style="font-family:'OceanicDriftBoldExpanded', 'Oceanic Drift Bold Expanded';font-stretch:expanded;font-size:47.807px;fill:rgb(90,181,222);stroke:black;stroke-width:0.87px;stroke-linecap:butt;stroke-miterlimit:2;">-</text>
        </g>
        <g transform="matrix(0.988619,-0.150442,0.150442,0.988619,-75.6939,55.0095)">
            <text x="325.726px" y="527.786px" style="font-family:'OceanicDriftBoldExpanded', 'Oceanic Drift Bold Expanded';font-stretch:expanded;font-size:47.807px;fill:rgb(90,181,222);stroke:black;stroke-width:0.87px;stroke-linecap:butt;stroke-miterlimit:2;">4</text>
        </g>
        <g transform="matrix(0.953876,-0.3002,0.3002,0.953876,-140.172,132.415)">
            <text x="360.831px" y="522.37px" style="font-family:'OceanicDriftBoldExpanded', 'Oceanic Drift Bold Expanded';font-stretch:expanded;font-size:47.807px;fill:rgb(90,181,222);stroke:black;stroke-width:0.87px;stroke-linecap:butt;stroke-miterlimit:2;">0</text>
        </g>
        <g transform="matrix(0.914678,-0.404182,0.404182,0.914678,-173.861,201.612)">
            <text x="390.604px" y="512.611px" style="font-family:'OceanicDriftBoldExpanded', 'Oceanic Drift Bold Expanded';font-stretch:expanded;font-size:47.807px;fill:rgb(90,181,222);stroke:black;stroke-width:0.87px;stroke-linecap:butt;stroke-miterlimit:2;">1</text>
        </g>
    </g>
    <g transform="matrix(1,0,0,1,13.7495,13.7495)">
        <g transform="matrix(0.676472,-0.736468,0.736468,0.676472,-87.7195,160.104)">
            <text x="138.368px" y="179.893px" style="font-family:'OceanicDriftBoldExpanded', 'Oceanic Drift Bold Expanded';font-stretch:expanded;font-size:53px;fill:white;stroke:black;stroke-width:1px;stroke-linecap:butt;stroke-miterlimit:2;">J</text>
        </g>
        <g transform="matrix(0.798278,-0.60229,0.60229,0.798278,-57.4676,129.827)">
            <text x="165.081px" y="150.705px" style="font-family:'OceanicDriftBoldExpanded', 'Oceanic Drift Bold Expanded';font-stretch:expanded;font-size:53px;fill:white;stroke:black;stroke-width:1px;stroke-linecap:butt;stroke-miterlimit:2;">B</text>
        </g>
        <g transform="matrix(0.894395,-0.447277,0.447277,0.894395,-35.9131,101.38)">
            <text x="196.736px" y="126.743px" style="font-family:'OceanicDriftBoldExpanded', 'Oceanic Drift Bold Expanded';font-stretch:expanded;font-size:53px;fill:white;stroke:black;stroke-width:1px;stroke-linecap:butt;stroke-miterlimit:2;">O</text>
        </g>
        <g transform="matrix(0.961782,-0.273817,0.273817,0.961782,-20.961,67.7021)">
            <text x="232.048px" y="108.94px" style="font-family:'OceanicDriftBoldExpanded', 'Oceanic Drift Bold Expanded';font-stretch:expanded;font-size:53px;fill:white;stroke:black;stroke-width:1px;stroke-linecap:butt;stroke-miterlimit:2;">S</text>
        </g>
        <g transform="matrix(0.996104,-0.0881856,0.0881856,0.996104,-7.55931,24.3056)">
            <text x="271.302px" y="97.706px" style="font-family:'OceanicDriftBoldExpanded', 'Oceanic Drift Bold Expanded';font-stretch:expanded;font-size:53px;fill:white;stroke:black;stroke-width:1px;stroke-linecap:butt;stroke-miterlimit:2;">S</text>
        </g>
        <g transform="matrix(0.987342,0.158603,-0.158603,0.987342,19.1636,-50.6463)">
            <text x="326.887px" y="94.739px" style="font-family:'OceanicDriftBoldExpanded', 'Oceanic Drift Bold Expanded';font-stretch:expanded;font-size:53px;fill:white;stroke:black;stroke-width:1px;stroke-linecap:butt;stroke-miterlimit:2;">E</text>
        </g>
        <g transform="matrix(0.940655,0.339364,-0.339364,0.940655,55.5631,-117.394)">
            <text x="363.44px" y="100.172px" style="font-family:'OceanicDriftBoldExpanded', 'Oceanic Drift Bold Expanded';font-stretch:expanded;font-size:53px;fill:white;stroke:black;stroke-width:1px;stroke-linecap:butt;stroke-miterlimit:2;">A</text>
        </g>
        <g transform="matrix(0.858204,0.513309,-0.513309,0.858204,116.507,-191.392)">
            <text x="404.679px" y="115.184px" style="font-family:'OceanicDriftBoldExpanded', 'Oceanic Drift Bold Expanded';font-stretch:expanded;font-size:53px;fill:white;stroke:black;stroke-width:1px;stroke-linecap:butt;stroke-miterlimit:2;">P</text>
        </g>
    </g>
    <g transform="matrix(1,0,0,1,13.7495,13.7495)">
        <g transform="matrix(0.640593,0.767881,-0.767881,0.640593,287.273,-299.929)">
            <text x="464.039px" y="156.918px" style="font-family:'OceanicDriftBoldExpanded', 'Oceanic Drift Bold Expanded';font-stretch:expanded;font-size:53px;fill:white;stroke:black;stroke-width:1px;stroke-linecap:butt;stroke-miterlimit:2;">K</text>
        </g>
        <g transform="matrix(0.535748,0.844378,-0.844378,0.535748,386.332,-325.751)">
            <text x="489.402px" y="188.453px" style="font-family:'OceanicDriftBoldExpanded', 'Oceanic Drift Bold Expanded';font-stretch:expanded;font-size:53px;fill:white;stroke:black;stroke-width:1px;stroke-linecap:butt;stroke-miterlimit:2;">I</text>
        </g>
        <g transform="matrix(0.425363,0.905023,-0.905023,0.425363,469.198,-335.424)">
            <text x="498.736px" y="201.769px" style="font-family:'OceanicDriftBoldExpanded', 'Oceanic Drift Bold Expanded';font-stretch:expanded;font-size:53px;fill:white;stroke:black;stroke-width:1px;stroke-linecap:butt;stroke-miterlimit:2;">T</text>
        </g>
        <g transform="matrix(0.255813,0.966726,-0.966726,0.255813,611.898,-322.088)">
            <text x="515.151px" y="236.396px" style="font-family:'OceanicDriftBoldExpanded', 'Oceanic Drift Bold Expanded';font-stretch:expanded;font-size:53px;fill:white;stroke:black;stroke-width:1px;stroke-linecap:butt;stroke-miterlimit:2;">C</text>
        </g>
        <g transform="matrix(0.0755762,0.99714,-0.99714,0.0755762,759.439,-269.975)">
            <text x="525.326px" y="274.601px" style="font-family:'OceanicDriftBoldExpanded', 'Oceanic Drift Bold Expanded';font-stretch:expanded;font-size:53px;fill:white;stroke:black;stroke-width:1px;stroke-linecap:butt;stroke-miterlimit:2;">H</text>
        </g>
        <g transform="matrix(-0.0999861,0.994989,-0.994989,-0.0999861,893.62,-180.164)">
            <text x="528.293px" y="314.079px" style="font-family:'OceanicDriftBoldExpanded', 'Oceanic Drift Bold Expanded';font-stretch:expanded;font-size:53px;fill:white;stroke:black;stroke-width:1px;stroke-linecap:butt;stroke-miterlimit:2;">E</text>
        </g>
        <g transform="matrix(-0.284257,0.958748,-0.958748,-0.284257,1010.77,-52.7041)">
            <text x="525.056px" y="350.936px" style="font-family:'OceanicDriftBoldExpanded', 'Oceanic Drift Bold Expanded';font-stretch:expanded;font-size:53px;fill:white;stroke:black;stroke-width:1px;stroke-linecap:butt;stroke-miterlimit:2;">N</text>
        </g>
        <g transform="matrix(-0.467527,0.883979,-0.883979,-0.467527,1099.79,125.085)">
            <text x="512.221px" y="393.777px" style="font-family:'OceanicDriftBoldExpanded', 'Oceanic Drift Bold Expanded';font-stretch:expanded;font-size:53px;fill:white;stroke:black;stroke-width:1px;stroke-linecap:butt;stroke-miterlimit:2;">S</text>
        </g>
        <g transform="matrix(-0.57935,0.815079,-0.815079,-0.57935,1127.87,276.695)">
            <text x="492.535px" y="429.385px" style="font-family:'OceanicDriftBoldExpanded', 'Oceanic Drift Bold Expanded';font-stretch:expanded;font-size:53px;fill:white;stroke:black;stroke-width:1px;stroke-linecap:butt;stroke-miterlimit:2;">I</text>
        </g>
        <g transform="matrix(-0.687364,0.726313,-0.726313,-0.687364,1138.53,396.525)">
            <text x="483.926px" y="443.299px" style="font-family:'OceanicDriftBoldExpanded', 'Oceanic Drift Bold Expanded';font-stretch:expanded;font-size:53px;fill:white;stroke:black;stroke-width:1px;stroke-linecap:butt;stroke-miterlimit:2;">N</text>
        </g>
        <g transform="matrix(-0.815729,0.578434,-0.578434,-0.815729,1097.83,601.728)">
            <text x="453.067px" y="475.731px" style="font-family:'OceanicDriftBoldExpanded', 'Oceanic Drift Bold Expanded';font-stretch:expanded;font-size:53px;fill:white;stroke:black;stroke-width:1px;stroke-linecap:butt;stroke-miterlimit:2;">K</text>
        </g>
    </g>
    <g transform="matrix(1,0,0,1,13.7495,13.7495)">
        <g transform="matrix(-0.794662,-0.607052,0.607052,-0.794662,51.3259,1008.16)">
            <text x="196.17px" y="495.398px" style="font-family:'OceanicDriftBoldExpanded', 'Oceanic Drift Bold Expanded';font-stretch:expanded;font-size:53px;fill:white;stroke:black;stroke-width:1px;stroke-linecap:butt;stroke-miterlimit:2;">O</text>
        </g>
        <g transform="matrix(-0.672072,-0.740486,0.740486,-0.672072,-73.721,910.223)">
            <text x="164.688px" y="471.435px" style="font-family:'OceanicDriftBoldExpanded', 'Oceanic Drift Bold Expanded';font-stretch:expanded;font-size:53px;fill:white;stroke:black;stroke-width:1px;stroke-linecap:butt;stroke-miterlimit:2;">P</text>
        </g>
        <g transform="matrix(-0.531294,-0.847187,0.847187,-0.531294,-163.083,793.949)">
            <text x="138.084px" y="442.087px" style="font-family:'OceanicDriftBoldExpanded', 'Oceanic Drift Bold Expanded';font-stretch:expanded;font-size:53px;fill:white;stroke:black;stroke-width:1px;stroke-linecap:butt;stroke-miterlimit:2;">E</text>
        </g>
        <g transform="matrix(-0.364215,-0.931315,0.931315,-0.364215,-221.749,670.743)">
            <text x="118.075px" y="411.063px" style="font-family:'OceanicDriftBoldExpanded', 'Oceanic Drift Bold Expanded';font-stretch:expanded;font-size:53px;fill:white;stroke:black;stroke-width:1px;stroke-linecap:butt;stroke-miterlimit:2;">N</text>
        </g>
        <g transform="matrix(-0.172943,-0.984932,0.984932,-0.172943,-244.216,533.482)">
            <text x="101.877px" y="369.276px" style="font-family:'OceanicDriftBoldExpanded', 'Oceanic Drift Bold Expanded';font-stretch:expanded;font-size:53px;fill:white;stroke:black;stroke-width:1px;stroke-linecap:butt;stroke-miterlimit:2;">S</text>
        </g>
        <g transform="matrix(0.0103062,-0.999947,0.999947,0.0103062,-235.275,420.58)">
            <text x="94.831px" y="329.146px" style="font-family:'OceanicDriftBoldExpanded', 'Oceanic Drift Bold Expanded';font-stretch:expanded;font-size:53px;fill:white;stroke:black;stroke-width:1px;stroke-linecap:butt;stroke-miterlimit:2;">H</text>
        </g>
        <g transform="matrix(0.137974,-0.990436,0.990436,0.137974,-204.159,344.673)">
            <text x="95.929px" y="289.622px" style="font-family:'OceanicDriftBoldExpanded', 'Oceanic Drift Bold Expanded';font-stretch:expanded;font-size:53px;fill:white;stroke:black;stroke-width:1px;stroke-linecap:butt;stroke-miterlimit:2;">I</text>
        </g>
        <g transform="matrix(0.259951,-0.965622,0.965622,0.259951,-191.897,296.467)">
            <text x="97.468px" y="273.428px" style="font-family:'OceanicDriftBoldExpanded', 'Oceanic Drift Bold Expanded';font-stretch:expanded;font-size:53px;fill:white;stroke:black;stroke-width:1px;stroke-linecap:butt;stroke-miterlimit:2;">F</text>
        </g>
        <g transform="matrix(0.422602,-0.906316,0.906316,0.422602,-153.785,234.186)">
            <text x="106.903px" y="237.788px" style="font-family:'OceanicDriftBoldExpanded', 'Oceanic Drift Bold Expanded';font-stretch:expanded;font-size:53px;fill:white;stroke:black;stroke-width:1px;stroke-linecap:butt;stroke-miterlimit:2;">T</text>
        </g>
    </g>
</svg>
