<?xml version="1.0" encoding="UTF-8" standalone="no"?>
<!DOCTYPE svg PUBLIC "-//W3C//DTD SVG 1.1//EN" "http://www.w3.org/Graphics/SVG/1.1/DTD/svg11.dtd">
<svg width="100%" height="100%" viewBox="0 0 1200 1168" version="1.1" xmlns="http://www.w3.org/2000/svg" xmlns:xlink="http://www.w3.org/1999/xlink" xml:space="preserve" xmlns:serif="http://www.serif.com/" style="fill-rule:evenodd;clip-rule:evenodd;stroke-linejoin:round;">
    <g id="layer1" transform="matrix(1.47115,0,0,1.47115,621.514,-247.374)">
        <path id="path4163" d="M-265.36,662.992C-230.26,646.992 -217.861,648.325 -174.143,644.168L-124.798,643.325C-149.136,618.844 -133.652,595.74 -110.464,593.184C-75.406,583.242 -46.063,584.727 14.179,583.541C101.19,583.199 179.164,589.474 256.679,620.684" style="fill:none;stroke:black;stroke-width:5.1px;"/>
        <path id="path4130" d="M163.987,862.609C139.861,863.178 -155.293,863.178 -179.42,862.609C-203.546,862.04 -212.43,851.152 -218.175,826.282L-311.754,525.186C-317.803,501.534 -319.16,495.628 -294.168,476.522L-27.453,283.46C-7.339,269.516 -1.037,269.895 16.655,283.46L269.468,476.522C294.46,495.628 293.103,501.534 287.054,525.186L202.743,826.282C196.998,851.152 188.114,862.04 163.987,862.609Z" style="fill:rgb(0,67,166);"/>
        <g id="path4168" transform="matrix(1,0,0,1,-424.571,168.076)">
            <path d="M667.711,550.421L634.376,669.619L381.838,645.376L352.543,530.218C455.995,516.101 561.589,529.823 667.711,550.421Z" style="fill:white;"/>
        </g>
        <g id="path4161" transform="matrix(1,0,0,1,-424.571,168.076)">
            <path d="M688.571,462.714C585.14,416.353 474.481,427.82 365.714,424.143C326.629,427.086 309.621,441.854 288.859,458.324L312.289,493.316L351.429,549.857C450,524.619 557.571,534.197 653.523,562.292L688.571,462.714Z" style="fill:rgb(192,22,0);"/>
        </g>
        <g id="path4166" transform="matrix(1,0,0,1,-424.571,168.076)">
            <path d="M626.295,648.406C564.744,618.292 500.567,619.691 436.386,621.132L452.548,704.975L607.102,717.096L626.295,648.406Z" style="fill:rgb(192,22,0);"/>
        </g>
        <g id="path4102" transform="matrix(1,0,0,1,-424.571,168.076)">
            <path d="M346.824,472.707L422.749,695.883L237.891,693.358C211.436,691.902 210.607,671.226 204.556,654.467L160.109,506.985C219.295,481.424 316.929,487.316 346.824,472.707Z" style="fill:rgb(0,0,110);"/>
        </g>
        <g id="path4112" transform="matrix(0.998523,0.0543349,-0.0543349,0.998523,-356.175,85.0586)">
            <path d="M268.095,553.279L290.388,582.128L324.555,574.631L305.089,600.539L321.396,628.544L290.741,618.037L269.146,642.2L269.666,609.798L240.012,596.727L270.989,587.208L268.095,553.279Z" style="fill:white;"/>
        </g>
        <path id="path4126" d="M-265.286,670.791C-215.032,654.276 -172.747,653.861 -126.487,650.846C-111.773,651.18 -101.286,651.219 -85.052,641.599C-84.169,637.728 -76.688,634.585 -99.215,630.197C-140.494,632.268 -132.686,612.08 -106.538,603.825C-62.942,595.593 -57.603,595.855 13.567,592.361C114.369,596.448 171.951,601.804 256.5,627.219" style="fill:none;stroke:rgb(67,141,0);stroke-width:5.1px;"/>
        <path id="path4122" d="M-264.462,675.061C-210.802,656.514 -170.948,656.905 -124.747,654.833C-107.613,654.2 -90.848,650.168 -82.355,643.935C-74.386,637.245 -81.782,625.61 -106.552,626.835C-134.759,628.384 -127.622,613.681 -107.442,607.709C-94.702,604.545 -62.801,597.682 12.585,595.159C103.467,598.204 161.384,600.626 255.347,631.351" style="fill:none;stroke:rgb(244,168,0);stroke-width:3.67px;"/>
        <g id="path4108" transform="matrix(0.998065,-0.0621864,0.0621864,0.998065,-526.414,133.743)">
            <path d="M274.256,554.967L292.882,581.486L324.555,574.631L305.089,600.539L321.396,628.544L290.741,618.037L269.146,642.2L269.666,609.798L240.012,596.727L270.989,587.208L274.256,554.967Z" style="fill:white;"/>
        </g>
        <g id="path4110" transform="matrix(0.999006,-0.0445839,0.0445839,0.999006,-487.343,253.988)">
            <path d="M274.256,554.967L292.882,581.486L324.555,574.631L305.089,600.539L321.396,628.544L290.741,618.037L269.146,642.2L269.666,609.798L240.012,596.727L270.989,587.208L274.256,554.967Z" style="fill:white;"/>
        </g>
        <path id="path4115" d="M-58.939,772.295L-38.247,802.313L-3.723,796.683L-24.568,821.496L-9.806,850.345L-39.846,838.188L-60.701,863.668L-60.442,828.816L-89.341,814.154L-57.893,806.332L-58.939,772.295Z" style="fill:white;"/>
        <path id="path4071" d="M163.987,862.609C139.861,863.178 -155.293,863.178 -179.42,862.609C-203.546,862.04 -212.43,851.152 -218.175,826.282L-311.754,525.186C-317.803,501.534 -319.16,495.628 -294.168,476.522L-27.453,283.46C-7.339,269.516 -1.037,269.895 16.655,283.46L269.468,476.522C294.46,495.628 293.103,501.534 287.054,525.186L202.743,826.282C196.998,851.152 188.114,862.04 163.987,862.609ZM213.821,946.326C182.583,947.062 -199.569,947.062 -230.807,946.326C-262.046,945.591 -273.549,931.515 -280.986,899.362L-402.149,510.097C-409.98,479.519 -411.737,471.884 -379.379,447.183L-34.048,197.587C-8.005,179.56 0.155,180.05 23.062,197.587L350.393,447.183C382.751,471.884 380.994,479.519 373.163,510.097L264,899.362C256.563,931.515 245.06,945.591 213.821,946.326Z"/>
        <path id="path4126-3-0" d="M-265.554,666.717C-210.349,647.686 -175.393,648.412 -123.459,645.797C-106.48,645.377 -106.534,644.585 -91.886,639.939C-93.268,635.061 -91.439,633.853 -116.231,634.498C-147.408,629.787 -134.948,605.115 -107.781,598.764C-92.147,595.109 -66.388,589.34 11.609,586.355C105.602,588.721 166.614,592.818 257.641,622.21" style="fill:none;stroke:rgb(192,22,0);stroke-width:4.76px;"/>
        <path id="path4126-3" d="M-265.436,669.583C-208.136,650.3 -176.774,651.942 -121.784,649.115C-102.623,647.939 -85.536,642.567 -85.546,638.126C-85.961,633.05 -99.244,632.613 -99.244,632.613C-106.229,632.429 -122.409,634.069 -127.706,628.453C-139.294,616.169 -118.694,603.977 -108.248,601.772C-83.291,594.802 -29.803,590.354 11.797,589.211C97.08,591.675 162.826,594.594 257.034,625.237" style="fill:none;stroke:rgb(247,246,173);stroke-width:3.4px;"/>
        <path id="path3950" d="M163.987,862.609C139.861,863.178 -155.293,863.178 -179.42,862.609C-203.546,862.04 -212.43,851.152 -218.175,826.282L-311.754,525.186C-317.803,501.534 -319.16,495.628 -294.168,476.522L-27.453,283.46C-7.339,269.516 -1.037,269.895 16.655,283.46L269.468,476.522C294.46,495.628 293.103,501.534 287.054,525.186L202.743,826.282C196.998,851.152 188.114,862.04 163.987,862.609Z" style="fill:none;stroke:rgb(244,168,0);stroke-width:7.3px;"/>
        <path id="path4054" d="M-5.286,568.291L-19.571,568.648L-34.929,565.434L-34.929,553.291L-47.241,549.483L-47.216,530.816L-124.571,517.934L-125.582,508.395L-119.388,477.663L-55.286,410.434L-37.071,311.505L-31.714,280.791C-31.499,254.219 -24.649,239.148 -17.429,224.719C-14.596,218.996 -11.177,210.878 -5.286,210.791C0.606,210.878 4.025,218.996 6.857,224.719C14.078,239.148 20.928,254.219 21.143,280.791L26.5,311.505L44.714,410.434L105.786,476.148L114,508.648L114,517.42L36.595,529.961L36.61,549.362L24.357,553.291L24.357,565.434L9,568.648L-5.286,568.291Z" style="fill:white;"/>
        <g transform="matrix(1.03231,0,0,0.968697,39.3751,485.417)">
            <g id="text3917">
                <text x="0px" y="0px" style="font-family:'LucidaGrande', 'Lucida Grande', sans-serif;font-weight:500;font-size:13.732px;">U S A</text>
            </g>
        </g>
        <path id="path3943" d="M213.821,946.326C182.583,947.062 -199.569,947.062 -230.807,946.326C-262.046,945.591 -273.549,931.515 -280.986,899.362L-402.149,510.097C-409.98,479.519 -411.737,471.884 -379.379,447.183L-34.048,197.587C-8.005,179.56 0.155,180.05 23.062,197.587L350.393,447.183C382.751,471.884 380.994,479.519 373.163,510.097L264,899.362C256.563,931.515 245.06,945.591 213.821,946.326Z" style="fill:none;stroke:rgb(244,168,0);stroke-width:13.5px;"/>
        <g id="path3957" transform="matrix(1,0,0,1,-424.571,168.076)">
            <path d="M534.876,332.481L459.367,343.087C458.784,340.472 458.457,337.6 456.589,336.269C450.516,328.022 444.24,319.815 444.72,310.257L434.241,310.261L434.223,305.107L445.571,304.783C450.595,310.531 458.113,319.968 460.377,334.249L533.866,325.157L534.876,332.481Z"/>
        </g>
        <g id="path3959" transform="matrix(1,0,0,1,-424.571,168.076)">
            <path d="M498.005,336.016L498.005,355.967" style="fill:none;stroke:black;stroke-width:1.7px;"/>
        </g>
        <path id="path3961" d="M35.521,510.659L35.521,529.094" style="fill:none;stroke:black;stroke-width:1.7px;"/>
        <path id="path3954" d="M21.125,271.276L44.139,392.724C46.883,404.337 51.517,415.11 60.302,424.038L108.284,473.031C113.7,479.003 113.968,483.505 114.85,488.183L116.404,506.949L116.095,518.508L37.258,532.049L37.317,546.509C37.291,549.65 37.438,547.113 36.593,554.259L27.209,555.159L26.462,566.722L22.926,567.48L22.421,555.863C21.67,549.372 15.082,550.515 10.299,549.297C14.679,541.081 19.181,532.84 8.784,527.579L35.806,528.968L110.557,516.467C110.87,512.801 109.648,502.935 107.274,489.193C106.577,480.334 95.91,474.378 48.18,424.543C40.694,416.534 36.578,401.785 33.785,384.39L23.427,319.592L20.572,319.623L21.125,271.276ZM26.083,529.978L33.533,529.978C34.442,529.978 35.174,530.71 35.174,531.62L35.174,545.635C35.174,546.545 34.442,547.277 33.533,547.277L26.083,547.277C25.173,547.277 24.441,546.545 24.441,545.635L24.441,531.62C24.441,530.71 25.173,529.978 26.083,529.978ZM31.386,538.312C31.386,539.357 30.538,540.206 29.492,540.206C28.447,540.206 27.598,539.357 27.598,538.312C27.598,537.266 28.447,536.418 29.492,536.418C30.538,536.418 31.386,537.266 31.386,538.312ZM31.386,532.923C31.386,533.968 30.538,534.817 29.492,534.817C28.447,534.817 27.598,533.968 27.598,532.923C27.598,531.877 28.447,531.029 29.492,531.029C30.538,531.029 31.386,531.877 31.386,532.923ZM31.386,543.403C31.386,544.449 30.538,545.297 29.492,545.297C28.447,545.297 27.598,544.449 27.598,543.403C27.598,542.358 28.447,541.509 29.492,541.509C30.538,541.509 31.386,542.358 31.386,543.403Z"/>
        <path id="rect3980" d="M-2.336,276.963L2.352,276.963C2.977,276.963 3.481,277.467 3.481,278.092L3.481,284.8C3.481,285.425 2.977,285.929 2.352,285.929L-2.336,285.929C-2.961,285.929 -3.464,285.425 -3.464,284.8L-3.464,278.092C-3.464,277.467 -2.961,276.963 -2.336,276.963Z"/>
        <g id="path3985" transform="matrix(1,0,0,1,-424.571,168.076)">
            <path d="M400.02,71.356L441.942,71.356" style="fill:none;stroke:black;stroke-width:1.7px;"/>
        </g>
        <g id="path3987" transform="matrix(0.679741,0,0,0.679741,-422.468,168.15)">
            <path d="M596.541,75.098L596.142,81.782L600.687,81.802L604.834,88.509L622.295,88.509L626.956,81.425L632.253,81.225L631.122,75.093L596.541,75.098Z" style="stroke:black;stroke-width:1.91px;"/>
        </g>
        <rect id="rect3991" x="-31.117" y="289.183" width="51.518" height="183.848" style="fill:none;stroke:black;stroke-width:1.7px;"/>
        <g id="path3993" transform="matrix(1,0,0,1,-424.571,168.076)">
            <path d="M419.213,121.106L419.213,304.449" style="fill:none;stroke:black;stroke-width:1.7px;"/>
        </g>
        <g id="path3995" transform="matrix(1,0,0,1,-424.571,168.076)">
            <path d="M392.949,165.048L444.972,165.048" style="fill:none;stroke:black;stroke-width:1.7px;"/>
        </g>
        <path id="path3997" d="M-31.622,379.125L20.401,379.125" style="fill:none;stroke:black;stroke-width:1.7px;"/>
        <path id="path3999" d="M-31.622,425.125L20.401,425.125" style="fill:none;stroke:black;stroke-width:1.7px;"/>
        <path id="path4001" d="M-31.622,469.125L20.401,469.125" style="fill:none;stroke:black;stroke-width:1.7px;"/>
        <g id="path4006" transform="matrix(1,0,0,1,-424.571,168.076)">
            <path d="M410.627,70.978L413.279,65.169L425.148,65.169L427.926,71.112" style="stroke:black;stroke-width:1.8px;"/>
        </g>
        <g id="path4013" transform="matrix(1,0,0,1,-424.571,168.076)">
            <path d="M435.063,309.39C430.252,309.984 430.313,315.074 429.355,319.863L429.165,355.445C428.899,359.311 432.482,360.685 436.786,360.393" style="fill:none;stroke:black;stroke-width:1.5px;"/>
        </g>
        <g id="path4017" transform="matrix(1,0,0,1,-424.571,168.076)">
            <path d="M420.357,389.143C423.04,389.438 424.552,384.366 424.464,380.036L423.929,325.571C422.579,314.718 422.596,305.9 419.643,305.214C417.114,305.336 415.327,314.142 415,325.929L415.893,380.393C416.081,384.513 418.083,389.732 420.357,389.143Z" style="fill:none;stroke:black;stroke-width:1.4px;"/>
        </g>
        <g id="path4019" transform="matrix(1,0,0,1,-424.571,168.076)">
            <path d="M419.643,322.536L420.431,385.12" style="fill:none;stroke:black;stroke-width:2.1px;"/>
        </g>
        <g id="path4023" transform="matrix(1,0,0,1,-424.571,168.076)">
            <path d="M424.264,357.482C432.371,357.848 429.63,373.499 431.083,383.241C431.369,386.417 430.692,388.717 427.295,388.544L420.981,389.049" style="fill:none;stroke:black;stroke-width:1.2px;"/>
        </g>
        <g id="path4025" transform="matrix(1,0,0,1,-424.571,168.076)">
            <path d="M424.39,345.36C425.735,347.734 427.64,347.7 429.315,347.759C429.981,351.724 427.729,358.93 431.335,359.629L429.567,362.028C427.8,359.005 426.199,357.474 424.769,357.482L424.39,345.36Z"/>
        </g>
        <g id="path4027" transform="matrix(1,0,0,1,-424.571,168.076)">
            <path d="M423.759,323.895C420.832,325.249 418.269,325.183 415.425,324.021C415.423,315.705 416.247,308.629 419.592,305.333C423.506,308.528 422.923,317.314 423.759,323.895Z"/>
        </g>
        <g id="path4030" transform="matrix(1,0,0,1,-424.571,168.076)">
            <path d="M417.067,384.251C419.045,385.3 421.781,385.005 424.138,383.778C423.567,386.122 423.194,388.822 420.476,389.176C417.803,388.834 417.655,386.356 417.067,384.251Z"/>
        </g>
        <g id="path4032" transform="matrix(1,0,0,1,-424.571,168.076)">
            <path d="M429.993,388.797C428.028,389.217 425.945,388.963 423.116,390.139C422.001,391.553 422.02,393.186 421.849,394.984L418.456,395.237C418.666,393.101 418.271,390.222 416.634,389.804C413.485,388.98 411.426,388.775 409.245,389.06L409.366,387.545L430.103,387.545L429.993,388.797Z"/>
        </g>
        <path id="path4034" d="M-31.692,273.137L-54.878,392.724C-57.622,404.337 -62.255,415.11 -71.04,424.038L-119.023,473.031C-124.438,479.003 -124.706,483.505 -125.589,488.183L-126.975,503.565C-127.076,509.414 -127.559,512.615 -127.046,518.602L-48.378,532.184L-48.291,546.901C-47.773,550.558 -47.673,551 -47.105,555.016C-42.386,555.482 -41.068,555.59 -36.619,555.684L-35.593,566.544L-32.058,567.301L-32.267,555.863C-31.516,549.372 -25.821,550.515 -21.038,549.297C-25.418,541.081 -29.92,532.84 -19.523,527.579L-46.544,528.968L-121.295,516.467C-121.609,512.801 -120.386,502.935 -118.012,489.193C-117.315,480.334 -106.648,474.378 -58.919,424.543C-51.433,416.534 -47.317,401.785 -44.524,384.39L-34.322,319.631L-31.824,319.623L-31.692,273.137ZM-36.821,529.978L-44.271,529.978C-45.181,529.978 -45.913,530.71 -45.913,531.62L-45.913,545.635C-45.913,546.545 -45.181,547.277 -44.271,547.277L-36.821,547.277C-35.912,547.277 -35.18,546.545 -35.18,545.635L-35.18,531.62C-35.18,530.71 -35.912,529.978 -36.821,529.978ZM-42.125,538.312C-42.125,539.357 -41.276,540.206 -40.231,540.206C-39.185,540.206 -38.337,539.357 -38.337,538.312C-38.337,537.266 -39.185,536.418 -40.231,536.418C-41.276,536.418 -42.125,537.266 -42.125,538.312ZM-42.125,532.923C-42.125,533.968 -41.276,534.817 -40.231,534.817C-39.185,534.817 -38.337,533.968 -38.337,532.923C-38.337,531.877 -39.185,531.029 -40.231,531.029C-41.276,531.029 -42.125,531.877 -42.125,532.923ZM-42.125,543.403C-42.125,544.449 -41.276,545.297 -40.231,545.297C-39.185,545.297 -38.337,544.449 -38.337,543.403C-38.337,542.358 -39.185,541.509 -40.231,541.509C-41.276,541.509 -42.125,542.358 -42.125,543.403Z"/>
        <path id="path4038" d="M-120.711,500.557L-45.202,511.164C-44.619,508.548 -44.292,505.676 -42.424,504.345C-36.352,496.098 -30.075,487.892 -30.555,478.334L-19.223,478.323L-19.212,473.184L-31.706,472.642C-35.961,477.192 -43.948,488.044 -46.212,502.325L-119.701,493.234L-120.711,500.557Z"/>
        <path id="path4040" d="M-19.827,477.588C-15.016,478.423 -15.319,483.634 -14.36,488.423L-13.929,524.005C-13.663,527.871 -17.125,528.136 -22.143,528.469" style="fill:none;stroke:black;stroke-width:1.5px;"/>
        <path id="rect4046" d="M-12.693,277.142L-8.005,277.142C-7.38,277.142 -6.876,277.645 -6.876,278.27L-6.876,284.979C-6.876,285.604 -7.38,286.107 -8.005,286.107L-12.693,286.107C-13.318,286.107 -13.821,285.604 -13.821,284.979L-13.821,278.27C-13.821,277.645 -13.318,277.142 -12.693,277.142Z"/>
        <path id="path3982" d="M-18.424,270.458C-18.726,272.699 -18.929,273.303 -20.576,273.526L-23.481,273.778C-25.853,273.249 -24.141,272.209 -24.112,271.379L-24.112,265.697C-26.128,264.991 -25.033,263.297 -23.859,262.793C-15.059,261.432 -10.435,257.147 -5.012,253.575C0.41,257.147 5.034,261.432 13.835,262.793C15.008,263.297 16.103,264.991 14.087,265.697L14.087,271.379C14.117,272.209 15.828,273.249 13.456,273.778L10.552,273.526C8.905,273.303 8.641,272.517 8.339,270.276C7.376,267.27 3.946,264.15 -0.109,264.146L-0.616,266.76L-9.214,266.835L-9.622,264.156C-15.276,264.811 -17.218,267.402 -18.424,270.458Z"/>
        <path id="path4062" d="M-85.281,504.271L-85.281,524.222" style="fill:none;stroke:black;stroke-width:1.7px;"/>
        <path id="path4064" d="M-45.936,510.544L-45.936,528.979" style="fill:none;stroke:black;stroke-width:1.7px;"/>
        <path id="path4066" d="M-9.236,513.437C-10.581,515.811 -12.128,515.777 -13.804,515.836C-14.469,519.801 -12.575,527.007 -16.181,527.705L-14.413,530.104C-12.646,527.082 -11.045,525.551 -9.615,525.559L-9.236,513.437Z"/>
        <path id="path4069" d="M-9.463,525.559C-17.57,525.924 -15.454,541.576 -16.906,551.317C-17.193,554.494 -16.516,556.794 -13.118,556.621L-6.805,557.126" style="fill:none;stroke:black;stroke-width:1.2px;"/>
        <g id="path4106" transform="matrix(0.999591,-0.0286103,0.0286103,0.999591,-441.582,176.397)">
            <path d="M274.256,554.967L292.882,581.486L324.555,574.631L305.089,600.539L321.396,628.544L290.741,618.037L269.146,642.2L269.666,609.798L240.012,596.727L270.989,587.208L274.256,554.967Z" style="fill:white;"/>
        </g>
        <g id="path4118" transform="matrix(1.03618,0,0,1,-435.633,168.076)">
            <path d="M522.857,513.423L522.857,513.434C522.857,523.622 473.846,532.006 414.286,532.006C354.725,532.006 305.714,523.622 305.714,513.434L305.714,513.423C305.714,503.235 354.725,494.852 414.286,494.852C473.846,494.852 522.857,503.235 522.857,513.423Z" style="fill:none;stroke:rgb(244,168,0);stroke-width:12.28px;"/>
        </g>
        <g id="path4095" transform="matrix(1,0,0,1,-424.571,168.076)">
            <path d="M447.758,398.857C450.239,428.933 489.121,623.422 565.685,697.398L505.581,696.893C476.943,616.27 437.714,449.38 435.009,400.251L447.758,398.857Z" style="fill:rgb(244,168,0);"/>
        </g>
        <path id="path4097" d="M-31.561,566.016C-36.233,598.733 -75.136,793.518 -149.68,865.475L-89.576,864.97C-58.452,789.73 -18.529,570.753 -18.503,568.051L-31.561,566.016Z" style="fill:rgb(244,168,0);"/>
        <path id="path4099" d="M6.345,566.263C5.267,615.993 6.1,668.042 13.571,727.888C21.307,777.138 34.571,818.29 47.675,863.516L-56.876,865.031C-41.013,816.107 -29.812,771.629 -22.026,720.013C-15.205,668.832 -13.713,617.651 -14.955,566.47L6.345,566.263Z" style="fill:rgb(244,168,0);"/>
        <path id="path3912" d="M-4.453,590.134L-4.453,565.891" style="fill:none;stroke:black;stroke-width:6.8px;stroke-linecap:round;"/>
        <rect id="rect3195" x="-32.561" y="564.226" width="56.275" height="3.164"/>
        <g id="path4044" transform="matrix(-0.9,0,0,0.666667,371.317,300.79)">
            <path d="M446.235,397.382L446.235,397.385C446.235,399.463 441.105,401.173 434.871,401.173C428.636,401.173 423.506,399.463 423.506,397.385L423.506,397.382C423.506,395.303 428.636,393.593 434.871,393.593C441.105,393.593 446.235,395.303 446.235,397.382Z" style="fill:white;stroke:black;stroke-width:3.51px;"/>
        </g>
        <g id="path4004" transform="matrix(0.9,0,0,0.666667,-380.2,300.79)">
            <path d="M446.235,397.382L446.235,397.385C446.235,399.463 441.105,401.173 434.871,401.173C428.636,401.173 423.506,399.463 423.506,397.385L423.506,397.382C423.506,395.303 428.636,393.593 434.871,393.593C441.105,393.593 446.235,395.303 446.235,397.382Z" style="fill:white;stroke:black;stroke-width:3.51px;"/>
        </g>
        <ellipse id="path3178" cx="-10.511" cy="236.113" rx="2.419" ry="3.054" style="fill:white;"/>
        <g id="use3180" transform="matrix(1,0,0,1,10.4017,0.0604752)">
            <ellipse cx="-10.511" cy="236.113" rx="2.419" ry="3.054" style="fill:white;"/>
        </g>
        <g id="use3182" transform="matrix(1,0,0,1,-5.20087,0)">
            <ellipse cx="-10.511" cy="236.113" rx="2.419" ry="3.054" style="fill:white;"/>
        </g>
        <ellipse id="path3189" cx="-10.709" cy="224.094" rx="2.523" ry="4.105" style="fill:white;"/>
        <g id="use3191" transform="matrix(1,0,0,1,10.6051,0.0855248)">
            <ellipse cx="-10.709" cy="224.094" rx="2.523" ry="4.105" style="fill:white;"/>
        </g>
        <g id="use3193" transform="matrix(1,0,0,1,-5.30254,0)">
            <ellipse cx="-10.709" cy="224.094" rx="2.523" ry="4.105" style="fill:white;"/>
        </g>
    </g>
    <g id="Layer1">
        <g transform="matrix(1.46445,0,0,1.46445,355.951,1108.8)">
            <g id="text3922">
                <text x="90.469px" y="0px" style="font-family:'Helvetica-Bold', 'Helvetica';font-weight:700;font-size:59.176px;fill:rgb(244,168,0);">OLLE</text>
            </g>
        </g>
        <g transform="matrix(1.46445,0,0,1.46445,112.753,605.681)">
            <g id="text39221" serif:id="text3922">
                <text x="68.563px" y="0px" style="font-family:'Helvetica-Bold', 'Helvetica';font-weight:700;font-size:56.677px;fill:rgb(244,168,0);">STI-400</text>
            </g>
        </g>
        <g id="text39222" serif:id="text3922">
        </g>
        <g transform="matrix(1.17989,-0.867454,0.875408,1.19071,206.266,417.559)">
            <g id="text3926">
                <text x="0px" y="0px" style="font-family:'Helvetica-Bold', 'Helvetica';font-weight:700;font-size:59.176px;fill:rgb(244,168,0);">VICENS</text>
            </g>
        </g>
        <g transform="matrix(1.17738,0.870858,-0.878844,1.18817,700.857,191.166)">
            <g id="text3930">
                <text x="0px" y="0px" style="font-family:'Helvetica-Bold', 'Helvetica';font-weight:700;font-size:59.176px;fill:rgb(244,168,0);">PRADA</text>
            </g>
        </g>
        <g transform="matrix(0.434182,1.39861,-1.41143,0.438163,82.819,568.158)">
            <g id="text3934">
                <text x="-24.734px" y="0px" style="font-family:'Helvetica-Bold', 'Helvetica';font-weight:700;font-size:59.176px;fill:rgb(244,168,0);">JBOSS EAP</text>
            </g>
        </g>
        <g transform="matrix(0.391369,-1.41118,1.42412,0.394958,1003.66,990.249)">
            <g id="text3938">
                <text x="-19.764px" y="0px" style="font-family:'Helvetica-Bold', 'Helvetica';font-weight:700;font-size:59.176px;fill:rgb(244,168,0);">OPENSHIFT</text>
            </g>
        </g>
    </g>
</svg>
